<mxfile host="Electron" agent="Mozilla/5.0 (Windows NT 10.0; Win64; x64) AppleWebKit/537.36 (KHTML, like Gecko) draw.io/28.1.2 Chrome/138.0.7204.243 Electron/37.4.0 Safari/537.36" version="28.1.2">
  <diagram name="หน้า-1" id="dLar_X44XICNivdCxOna">
    <mxGraphModel dx="1042" dy="626" grid="1" gridSize="10" guides="1" tooltips="1" connect="1" arrows="1" fold="1" page="1" pageScale="1" pageWidth="827" pageHeight="1169" math="0" shadow="0">
      <root>
        <mxCell id="0" />
        <mxCell id="1" parent="0" />
        <mxCell id="MhWI8v0_TJHslmPQya0K-1" value="Start" style="ellipse;whiteSpace=wrap;html=1;" vertex="1" parent="1">
          <mxGeometry x="354" y="30" width="120" height="60" as="geometry" />
        </mxCell>
        <mxCell id="MhWI8v0_TJHslmPQya0K-2" value="เตรียมอุปกรณ์ครัว: กระทะ, ช้อน, ตะหลิว, เขียง, มีด, จาน" style="rectangle;whiteSpace=wrap;html=1;" vertex="1" parent="1">
          <mxGeometry x="234" y="130" width="360" height="60" as="geometry" />
        </mxCell>
        <mxCell id="MhWI8v0_TJHslmPQya0K-3" value="เตรียมวัตถุดิบ: ข้าวสวย, หมูกรอบ, กระเพรา, พริก, กระเทียม, ซอสปรุงรส, ไข่เยี่ยวม้า" style="rectangle;whiteSpace=wrap;html=1;" vertex="1" parent="1">
          <mxGeometry x="214" y="230" width="400" height="60" as="geometry" />
        </mxCell>
        <mxCell id="MhWI8v0_TJHslmPQya0K-4" value="ทอดหมูกรอบจนเหลืองกรอบ" style="rectangle;whiteSpace=wrap;html=1;" vertex="1" parent="1">
          <mxGeometry x="294" y="330" width="240" height="60" as="geometry" />
        </mxCell>
        <mxCell id="MhWI8v0_TJHslmPQya0K-5" value="ผัดกระเทียม + พริก จนหอม" style="rectangle;whiteSpace=wrap;html=1;" vertex="1" parent="1">
          <mxGeometry x="294" y="430" width="240" height="60" as="geometry" />
        </mxCell>
        <mxCell id="MhWI8v0_TJHslmPQya0K-6" value="ใส่หมูกรอบลงผัดรวม" style="rectangle;whiteSpace=wrap;html=1;" vertex="1" parent="1">
          <mxGeometry x="294" y="530" width="240" height="60" as="geometry" />
        </mxCell>
        <mxCell id="MhWI8v0_TJHslmPQya0K-7" value="ใส่ซอสปรุงรส ผัดให้เข้ากัน" style="rectangle;whiteSpace=wrap;html=1;" vertex="1" parent="1">
          <mxGeometry x="274" y="630" width="280" height="60" as="geometry" />
        </mxCell>
        <mxCell id="MhWI8v0_TJHslmPQya0K-8" value="ใส่กระเพราผัดเร็วๆ 30 วินาที" style="rectangle;whiteSpace=wrap;html=1;" vertex="1" parent="1">
          <mxGeometry x="274" y="730" width="280" height="60" as="geometry" />
        </mxCell>
        <mxCell id="MhWI8v0_TJHslmPQya0K-9" value="ใส่ข้าวสวยลงผัดรวมกับเครื่อง ปรุงรสตามชอบ" style="rectangle;whiteSpace=wrap;html=1;" vertex="1" parent="1">
          <mxGeometry x="234" y="830" width="360" height="60" as="geometry" />
        </mxCell>
        <mxCell id="MhWI8v0_TJHslmPQya0K-10" value="ตักใส่จาน วางไข่เยี่ยวม้าด้านบน" style="rectangle;whiteSpace=wrap;html=1;" vertex="1" parent="1">
          <mxGeometry x="274" y="930" width="280" height="60" as="geometry" />
        </mxCell>
        <mxCell id="MhWI8v0_TJHslmPQya0K-11" value="Stop" style="ellipse;whiteSpace=wrap;html=1;" vertex="1" parent="1">
          <mxGeometry x="354" y="1050" width="120" height="60" as="geometry" />
        </mxCell>
        <mxCell id="MhWI8v0_TJHslmPQya0K-12" style="edgeStyle=orthogonalEdgeStyle;rounded=0;orthogonalLoop=1;jettySize=auto;html=1;endArrow=block;" edge="1" parent="1" source="MhWI8v0_TJHslmPQya0K-1" target="MhWI8v0_TJHslmPQya0K-2">
          <mxGeometry relative="1" as="geometry" />
        </mxCell>
        <mxCell id="MhWI8v0_TJHslmPQya0K-13" style="edgeStyle=orthogonalEdgeStyle;rounded=0;orthogonalLoop=1;jettySize=auto;html=1;endArrow=block;" edge="1" parent="1" source="MhWI8v0_TJHslmPQya0K-2" target="MhWI8v0_TJHslmPQya0K-3">
          <mxGeometry relative="1" as="geometry" />
        </mxCell>
        <mxCell id="MhWI8v0_TJHslmPQya0K-14" style="edgeStyle=orthogonalEdgeStyle;rounded=0;orthogonalLoop=1;jettySize=auto;html=1;endArrow=block;" edge="1" parent="1" source="MhWI8v0_TJHslmPQya0K-3" target="MhWI8v0_TJHslmPQya0K-4">
          <mxGeometry relative="1" as="geometry" />
        </mxCell>
        <mxCell id="MhWI8v0_TJHslmPQya0K-15" style="edgeStyle=orthogonalEdgeStyle;rounded=0;orthogonalLoop=1;jettySize=auto;html=1;endArrow=block;" edge="1" parent="1" source="MhWI8v0_TJHslmPQya0K-4" target="MhWI8v0_TJHslmPQya0K-5">
          <mxGeometry relative="1" as="geometry" />
        </mxCell>
        <mxCell id="MhWI8v0_TJHslmPQya0K-16" style="edgeStyle=orthogonalEdgeStyle;rounded=0;orthogonalLoop=1;jettySize=auto;html=1;endArrow=block;" edge="1" parent="1" source="MhWI8v0_TJHslmPQya0K-5" target="MhWI8v0_TJHslmPQya0K-6">
          <mxGeometry relative="1" as="geometry" />
        </mxCell>
        <mxCell id="MhWI8v0_TJHslmPQya0K-17" style="edgeStyle=orthogonalEdgeStyle;rounded=0;orthogonalLoop=1;jettySize=auto;html=1;endArrow=block;" edge="1" parent="1" source="MhWI8v0_TJHslmPQya0K-6" target="MhWI8v0_TJHslmPQya0K-7">
          <mxGeometry relative="1" as="geometry" />
        </mxCell>
        <mxCell id="MhWI8v0_TJHslmPQya0K-18" style="edgeStyle=orthogonalEdgeStyle;rounded=0;orthogonalLoop=1;jettySize=auto;html=1;endArrow=block;" edge="1" parent="1" source="MhWI8v0_TJHslmPQya0K-7" target="MhWI8v0_TJHslmPQya0K-8">
          <mxGeometry relative="1" as="geometry" />
        </mxCell>
        <mxCell id="MhWI8v0_TJHslmPQya0K-19" style="edgeStyle=orthogonalEdgeStyle;rounded=0;orthogonalLoop=1;jettySize=auto;html=1;endArrow=block;" edge="1" parent="1" source="MhWI8v0_TJHslmPQya0K-8" target="MhWI8v0_TJHslmPQya0K-9">
          <mxGeometry relative="1" as="geometry" />
        </mxCell>
        <mxCell id="MhWI8v0_TJHslmPQya0K-20" style="edgeStyle=orthogonalEdgeStyle;rounded=0;orthogonalLoop=1;jettySize=auto;html=1;endArrow=block;" edge="1" parent="1" source="MhWI8v0_TJHslmPQya0K-9" target="MhWI8v0_TJHslmPQya0K-10">
          <mxGeometry relative="1" as="geometry" />
        </mxCell>
        <mxCell id="MhWI8v0_TJHslmPQya0K-21" style="edgeStyle=orthogonalEdgeStyle;rounded=0;orthogonalLoop=1;jettySize=auto;html=1;endArrow=block;" edge="1" parent="1" source="MhWI8v0_TJHslmPQya0K-10" target="MhWI8v0_TJHslmPQya0K-11">
          <mxGeometry relative="1" as="geometry" />
        </mxCell>
      </root>
    </mxGraphModel>
  </diagram>
</mxfile>
